<svg width="1440" height="1024" viewBox="0 0 1440 1024" fill="none" xmlns="http://www.w3.org/2000/svg">
<g clip-path="url(#clip0_361_1961)">
<rect width="1440" height="1024" fill="#FFE091"/>
<path d="M1101.04 659.067C1193.79 673.772 1440 596.905 1440 596.905V1136.32L-9.89932 1143V556.8C-9.89932 556.8 -79.292 506 61.4945 506C202.281 506 299.03 596.905 395.112 596.905C491.193 596.905 614.631 556.8 772.098 556.8C929.566 556.8 1008.3 644.362 1101.04 659.067Z" fill="#F29069"/>
<path d="M379.365 689.229C142.46 667.658 -27 761.227 -27 761.227V1141H1382C1382 1141 1611.51 722.662 1382 722.662C1152.48 722.662 990.894 796.298 884.875 794.337C778.857 792.376 616.27 710.8 379.365 689.229Z" fill="#C1623C"/>
<ellipse opacity="0.8" cx="987.5" cy="93" rx="227.5" ry="19" fill="white"/>
<ellipse opacity="0.8" cx="1001.08" cy="121.368" rx="150.254" ry="18.2378" transform="rotate(0.782498 1001.08 121.368)" fill="white"/>
<ellipse opacity="0.8" cx="562.877" cy="273.234" rx="93.7087" ry="12.955" transform="rotate(0.782498 562.877 273.234)" fill="white"/>
<ellipse opacity="0.8" cx="1301.88" cy="240.792" rx="169.686" ry="15.4757" transform="rotate(0.782498 1301.88 240.792)" fill="white"/>
<circle cx="175.284" cy="134.426" r="91.4255" fill="#FDFAFA"/>
<path d="M262.555 205.984C270.064 198.248 279.132 166.13 281.159 150.766C283.186 135.403 303.396 165.434 296.502 185.006C289.607 204.578 255.045 213.721 262.555 205.984Z" fill="#FDFAFA"/>
<path d="M123.676 237.032C138.851 242.668 199.157 242.193 227.723 239.471C256.289 236.749 203.393 268.173 166.477 266.984C129.561 265.796 108.501 231.396 123.676 237.032Z" fill="#FDFAFA"/>
<path d="M70.6875 110.011C71.7028 99.277 90.2601 71.5388 100.636 60.0285C111.012 48.5182 75.0474 52.6233 64.6266 70.5681C54.2059 88.5129 69.6722 120.745 70.6875 110.011Z" fill="#FDFAFA"/>
<ellipse opacity="0.8" cx="33.5" cy="335" rx="182.5" ry="18" fill="white"/>
<ellipse opacity="0.8" cx="93.8998" cy="358.415" rx="93.7087" ry="18.9061" transform="rotate(0.782498 93.8998 358.415)" fill="white"/>
</g>
<defs>
<clipPath id="clip0_361_1961">
<rect width="1440" height="1024" fill="white"/>
</clipPath>
</defs>
</svg>
